<!DOCTYPE svg PUBLIC "-//W3C//DTD SVG 1.1//EN" "http://www.w3.org/Graphics/SVG/1.1/DTD/svg11.dtd">
<!-- Uploaded to: SVG Repo, www.svgrepo.com, Transformed by: SVG Repo Mixer Tools -->
<svg fill="#ffffff" width="800px" height="800px" viewBox="0 0 512.00 512.00" xmlns="http://www.w3.org/2000/svg" stroke="#ffffff" stroke-width="0.00512">
<g id="SVGRepo_bgCarrier" stroke-width="0"/>
<g id="SVGRepo_tracerCarrier" stroke-linecap="round" stroke-linejoin="round" stroke="#CCCCCC" stroke-width="23.552">
<title>ionicons-v5-h</title>
<circle cx="256" cy="56" r="56"/>
<polygon points="464 128 48 128 48 180 192 180 160 505.13 211 512 232.65 320 279.67 320 301 512 352 505.02 320 180 464 180 464 128"/>
</g>
<g id="SVGRepo_iconCarrier">
<title>ionicons-v5-h</title>
<circle cx="256" cy="56" r="56"/>
<polygon points="464 128 48 128 48 180 192 180 160 505.13 211 512 232.65 320 279.67 320 301 512 352 505.02 320 180 464 180 464 128"/>
</g>
</svg>