<?xml version="1.0" encoding="UTF-8" standalone="no"?>
<!DOCTYPE svg PUBLIC "-//W3C//DTD SVG 1.1//EN" "http://www.w3.org/Graphics/SVG/1.1/DTD/svg11.dtd">
<svg width="100%" height="100%" viewBox="0 0 512 512" version="1.1" xmlns="http://www.w3.org/2000/svg" xmlns:xlink="http://www.w3.org/1999/xlink" xml:space="preserve" xmlns:serif="http://www.serif.com/" style="fill-rule:evenodd;clip-rule:evenodd;stroke-linecap:round;stroke-miterlimit:1.5;">
    <g id="Cat">
        <g transform="matrix(2.72619,0,0,2.72619,-432.542,-444.994)">
            <circle cx="252.565" cy="261.846" r="58.218"/>
        </g>
        <g transform="matrix(2.92923,0,0,2.92923,-483.821,-498.157)">
            <circle cx="252.565" cy="261.846" r="58.218" style="fill-opacity:0;"/>
            <path d="M252.565,199.078C217.923,199.078 189.798,227.203 189.798,261.846C189.798,296.488 217.923,324.613 252.565,324.613C287.207,324.613 315.332,296.488 315.332,261.846C315.332,227.203 287.207,199.078 252.565,199.078ZM252.565,203.627C284.697,203.627 310.783,229.714 310.783,261.846C310.783,293.977 284.697,320.064 252.565,320.064C220.434,320.064 194.347,293.977 194.347,261.846C194.347,229.714 220.434,203.627 252.565,203.627Z"/>
        </g>
        <g transform="matrix(0.331741,0,0,0.331741,146.39,129.149)">
            <path d="M721.584,308.616C716.898,290.905 698.734,280.345 681.025,285.031C678.109,285.895 659.967,290.733 640.334,307.439C630.594,315.797 620.595,327.363 613.208,342.523C605.789,357.664 601.2,376.238 601.244,397.263C601.264,422.802 607.702,451.786 622.247,485.164C632.063,507.669 636.534,531.566 636.534,555.236C636.631,595.278 623.35,634.542 603.533,661.928C593.695,675.642 582.367,686.313 571.008,693.213C566.342,696.041 561.722,698.105 557.12,699.745L558.666,690.598C558.58,663.989 552.338,636.161 538.32,611.648C494.014,534.081 434.847,401.116 434.847,401.116L432.461,393.492C478.508,381.311 523.991,356.917 546.755,307.578C607.584,175.791 482.567,84.563 482.567,84.563C482.567,84.563 442.008,-3.284 421.748,0.094C401.47,3.475 357.539,60.923 357.539,60.923L283.202,60.923C283.202,60.923 239.283,3.475 219.014,0.094C198.734,-3.286 158.195,84.563 158.195,84.563C158.195,84.563 33.167,175.791 93.997,307.578C115.594,354.38 157.655,378.784 201.238,391.559L196.627,406.656C196.627,406.656 146.77,534.081 102.441,611.648C58.122,689.206 91.372,800 152.308,800C198.355,800 275.964,852.285 311.202,852.285L329.581,852.285C364.806,852.285 442.428,800 488.473,800C508.245,800 525.005,788.208 537.23,769.806C561.958,769.786 585.37,762.194 605.522,749.872C635.92,731.255 659.753,702.497 676.512,668.784C693.208,635.006 702.85,595.916 702.884,555.234C702.884,523.228 696.814,490.205 683.069,458.652C671.255,431.558 667.572,411.439 667.594,397.261C667.637,385.502 669.937,377.661 672.842,371.614C675.056,367.1 677.723,363.536 680.628,360.534C684.958,356.053 689.947,352.911 693.673,351.075C695.52,350.145 697.009,349.563 697.852,349.259L698.553,349.022L698.542,348.978C715.905,344.045 726.217,326.131 721.584,308.616Z" style="fill:white;fill-rule:nonzero;"/>
        </g>
        <g transform="matrix(1,0,0,1,0,-4.85146)">
            <g transform="matrix(1,0,0,-1.31958,0,517.462)">
                <path d="M263.605,213.832C263.605,213.832 269.837,215.079 273.545,215.821C275.319,216.176 277.171,216.247 278.984,216.032C284.721,215.348 297.444,213.832 297.444,213.832C297.444,213.832 297.94,215.379 298.656,217.615C301.665,227 295.136,236.637 283.319,240.254C283.318,240.254 283.318,240.254 283.317,240.254C276.888,242.222 269.518,240.822 265.074,236.789C264.781,236.523 264.487,236.256 264.193,235.989C259.14,231.404 257.786,225.096 260.66,219.533C262.236,216.482 263.605,213.832 263.605,213.832Z"/>
            </g>
            <g transform="matrix(-1,0,0,-1.31958,509.922,517.462)">
                <path d="M263.605,213.832C263.605,213.832 269.837,215.079 273.545,215.821C275.319,216.176 277.171,216.247 278.984,216.032C284.721,215.348 297.444,213.832 297.444,213.832C297.444,213.832 297.94,215.379 298.656,217.615C301.665,227 295.136,236.637 283.319,240.254C283.318,240.254 283.318,240.254 283.317,240.254C276.888,242.222 269.518,240.822 265.074,236.789C264.781,236.523 264.487,236.256 264.193,235.989C259.14,231.404 257.786,225.096 260.66,219.533C262.236,216.482 263.605,213.832 263.605,213.832Z"/>
            </g>
        </g>
        <g transform="matrix(1,0,0,1,1.89373,0)">
            <g>
                <path d="M224.767,234.291L140.303,270.518" style="fill:none;stroke:white;stroke-width:3.27px;"/>
                <g transform="matrix(0.874898,0.0536567,0.0536567,0.976986,28.4409,2.27802)">
                    <path d="M224.767,234.291L140.303,270.518" style="fill:none;stroke:white;stroke-width:3.33px;"/>
                </g>
            </g>
            <g transform="matrix(-1,0,0,1,508.213,0)">
                <path d="M224.767,234.291L140.303,270.518" style="fill:none;stroke:white;stroke-width:3.27px;"/>
                <g transform="matrix(0.874898,0.0536567,0.0536567,0.976986,28.4409,2.27802)">
                    <path d="M224.767,234.291L140.303,270.518" style="fill:none;stroke:white;stroke-width:3.33px;"/>
                </g>
            </g>
        </g>
    </g>
</svg>
