<?xml version="1.0" encoding="UTF-8" standalone="no"?>
<!DOCTYPE svg PUBLIC "-//W3C//DTD SVG 1.1//EN" "http://www.w3.org/Graphics/SVG/1.1/DTD/svg11.dtd">
<svg width="100%" height="100%" viewBox="0 0 566 200" version="1.1" xmlns="http://www.w3.org/2000/svg" xmlns:xlink="http://www.w3.org/1999/xlink" xml:space="preserve" xmlns:serif="http://www.serif.com/" style="fill-rule:evenodd;clip-rule:evenodd;">
    <g transform="matrix(0.353563,0.353563,-0.353563,0.353563,282.85,-182.851)">
        <g>
            <g>
                <path d="M329.425,363.908C324.211,358.694 315.785,358.694 310.572,363.908C305.358,369.122 305.358,377.549 310.572,382.761L354.478,426.667L350.572,430.573C345.358,435.786 345.358,444.214 350.572,449.426C353.172,452.026 356.586,453.333 359.999,453.333C363.413,453.333 366.825,452.026 369.425,449.426L373.331,445.52L417.237,489.426C419.837,492.026 423.251,493.332 426.664,493.332C430.078,493.332 433.49,492.026 436.09,489.426C441.305,484.212 441.305,475.786 436.09,470.573L329.425,363.908Z" style="fill:white;fill-rule:nonzero;stroke:white;stroke-width:1px;"/>
                <path d="M276.093,403.908C269.946,397.761 261.866,394.375 253.333,394.375C244.801,394.375 236.719,397.761 230.574,403.908L190.574,443.908C176.96,457.522 176.96,475.814 190.574,489.428L241.147,540.001L145.321,635.813C135.242,625.746 117.668,625.746 107.615,635.813L7.814,735.614C2.773,740.653 0,747.347 0,754.48C0,761.6 2.773,768.294 7.814,773.333L26.667,792.186C31.708,797.227 38.4,799.998 45.52,799.998C52.653,799.998 59.347,797.225 64.373,792.186L164.173,692.386C169.213,687.36 171.987,680.654 171.987,673.533C171.987,666.401 169.213,659.707 164.173,654.68L259.999,558.854L310.572,609.427C319.225,618.08 327.732,619.894 333.332,619.894C338.931,619.894 347.438,618.08 356.091,609.427L396.091,569.427C410.544,554.96 410.544,538.36 396.091,523.907L276.093,403.908ZM45.52,773.333L45.534,773.333L45.52,786.666L45.52,773.333L26.667,754.48L126.467,654.68L145.32,673.533L45.52,773.333ZM377.239,550.574L337.239,590.574C335.053,592.762 333.68,593.227 333.333,593.227C332.986,593.227 331.613,592.76 329.427,590.574L209.427,470.575C206.213,467.361 206.213,465.975 209.427,462.762L249.427,422.762C250.841,421.348 252.333,421.042 253.333,421.042C254.333,421.042 255.813,421.348 257.24,422.762L377.239,542.762C379.719,545.256 380.159,546.588 380.213,546.588C380.158,546.762 379.719,548.081 377.239,550.574Z" style="fill:white;fill-rule:nonzero;stroke:white;stroke-width:1px;"/>
                <path d="M666.665,66.67C629.904,66.67 599.998,96.576 599.998,133.335C599.998,146.909 604.118,159.495 611.104,170.042L596.957,184.174C591.757,189.388 591.757,197.827 596.957,203.041C599.57,205.641 602.984,206.935 606.384,206.935C609.798,206.935 613.21,205.641 615.81,203.041L629.957,188.895C640.49,195.88 653.09,200.001 666.663,200.001C703.422,200.001 733.33,170.095 733.33,133.334C733.33,96.576 703.424,66.67 666.665,66.67ZM666.665,173.335C644.612,173.335 626.665,155.388 626.665,133.335C626.665,111.282 644.612,93.336 666.665,93.336C688.718,93.336 706.664,111.282 706.664,133.335C706.664,155.388 688.718,173.335 666.665,173.335Z" style="fill:white;fill-rule:nonzero;stroke:white;stroke-width:1px;"/>
                <path d="M796.091,3.909C790.878,-1.303 782.45,-1.303 777.238,3.909L723.903,57.244C718.689,62.458 718.689,70.884 723.903,76.097C726.503,78.697 729.917,80.003 733.33,80.003C736.744,80.003 740.156,78.697 742.756,76.097L796.091,22.764C801.303,17.55 801.303,9.123 796.091,3.909Z" style="fill:white;fill-rule:nonzero;stroke:white;stroke-width:1px;"/>
                <path d="M369.425,323.908C364.211,318.694 355.785,318.694 350.572,323.908C345.36,329.122 345.358,337.549 350.572,342.761L394.478,386.667L390.572,390.573C385.359,395.788 385.359,404.214 390.572,409.427C393.172,412.027 396.586,413.333 399.998,413.333C403.412,413.333 406.825,412.027 409.425,409.427L413.331,405.52L457.237,449.426C459.837,452.026 463.251,453.333 466.664,453.333C470.078,453.333 473.49,452.026 476.09,449.426C481.303,444.212 481.303,435.786 476.09,430.573L369.425,323.908Z" style="fill:white;fill-rule:nonzero;stroke:white;stroke-width:1px;"/>
                <path d="M476.092,203.909C469.945,197.762 461.865,194.376 453.333,194.376C444.8,194.376 436.719,197.762 430.573,203.909L390.573,243.908C376.959,257.522 376.959,275.815 390.573,289.429L441.147,340.002L430.573,350.575C425.359,355.789 425.359,364.216 430.573,369.428C433.173,372.028 436.587,373.334 440,373.334C443.414,373.334 446.826,372.028 449.426,369.428L460,358.855L510.573,409.428C519.214,418.081 527.72,419.895 533.332,419.895C538.946,419.895 547.453,418.081 556.092,409.428L596.091,369.428C610.559,354.961 610.559,338.361 596.091,323.908L476.092,203.909ZM577.238,350.575L537.239,390.575C535.065,392.761 533.679,393.228 533.332,393.228C532.985,393.228 531.599,392.761 529.426,390.575L409.427,270.576C406.212,267.361 406.212,265.976 409.427,262.763L449.426,222.763C450.839,221.349 452.333,221.043 453.333,221.043C454.333,221.043 455.812,221.349 457.239,222.763L577.238,342.763C579.718,345.256 580.159,346.589 580.212,346.589C580.157,346.763 579.718,348.081 577.238,350.575Z" style="fill:white;fill-rule:nonzero;stroke:white;stroke-width:1px;"/>
                <path d="M529.424,163.909C524.212,158.695 515.784,158.695 510.571,163.909C505.357,169.123 505.357,177.549 510.571,182.762L554.478,226.668L550.571,230.574C545.357,235.788 545.357,244.215 550.571,249.427C553.171,252.027 556.585,253.333 559.998,253.333C563.412,253.333 566.824,252.027 569.424,249.427L573.331,245.521L617.237,289.427C619.837,292.027 623.251,293.333 626.663,293.333C630.077,293.333 633.49,292.027 636.09,289.427C641.304,284.213 641.304,275.786 636.09,270.574L529.424,163.909Z" style="fill:white;fill-rule:nonzero;stroke:white;stroke-width:1px;"/>
            </g>
        </g>
    </g>
</svg>
